HIERARCHY
ROOT Hips
{
	OFFSET 0.00000 0.00000 0.00000
	CHANNELS 6 Xposition Yposition Zposition Zrotation Yrotation Xrotation 
	JOINT LHipJoint
	{
		OFFSET 0 0 0
		CHANNELS 3 Zrotation Yrotation Xrotation
		JOINT LeftHip
		{
			OFFSET 1.41496 -1.84582 0.78394
			CHANNELS 3 Zrotation Yrotation Xrotation
			JOINT LeftKnee
			{
				OFFSET 2.58040 -7.08960 0.00000
				CHANNELS 3 Zrotation Yrotation Xrotation
				JOINT LeftAnkle
				{
					OFFSET 2.64719 -7.27309 0.00000
					CHANNELS 3 Zrotation Yrotation Xrotation
					JOINT LeftToe
					{
						OFFSET 0.20718 -0.56921 2.20259
						CHANNELS 3 Zrotation Yrotation Xrotation
						End Site
						{
							OFFSET 0.00000 -0.00000 1.14243
						}
					}
				}
			}
		}
	}
	JOINT RHipJoint
	{
		OFFSET 0 0 0
		CHANNELS 3 Zrotation Yrotation Xrotation
		JOINT RightHip
		{
			OFFSET -1.40551 -1.84582 0.78394
			CHANNELS 3 Zrotation Yrotation Xrotation
			JOINT RightKnee
			{
				OFFSET -2.56572 -7.04926 0.00000
				CHANNELS 3 Zrotation Yrotation Xrotation
				JOINT RightAnkle
				{
					OFFSET -2.57974 -7.08778 0.00000
					CHANNELS 3 Zrotation Yrotation Xrotation
					JOINT RightToe
					{
						OFFSET -0.26704 -0.73369 2.20815
						CHANNELS 3 Zrotation Yrotation Xrotation
						End Site
						{
							OFFSET -0.00000 -0.00000 1.16246
						}
					}
				}
			}
		}
	}
	JOINT lowerback
	{
		OFFSET 0 0 0
		CHANNELS 3 Zrotation Yrotation Xrotation
		JOINT Chest
		{
			OFFSET -0.04690 2.05196 -0.07017
			CHANNELS 3 Zrotation Yrotation Xrotation
			JOINT Chest2
			{
				OFFSET 0.04085 2.05260 0.00800
				CHANNELS 3 Zrotation Yrotation Xrotation
				JOINT lowerneck
				{
					OFFSET 0 0 0
					CHANNELS 3 Zrotation Yrotation Xrotation
					JOINT Neck
					{
						OFFSET -0.03582 1.80995 0.19301
						CHANNELS 3 Zrotation Yrotation Xrotation
						JOINT Head
						{
							OFFSET 0.00952 1.80195 -0.36389
							CHANNELS 3 Zrotation Yrotation Xrotation
							End Site
							{
								OFFSET 0.00392 1.85062 -0.14494
							}
						}
					}
				}
				JOINT LeftCollar
				{
					OFFSET 0 0 0
					CHANNELS 3 Zrotation Yrotation Xrotation
					JOINT LeftShoulder
					{
						OFFSET 3.55224 1.39726 -0.13667
CHANNELS 3 Zrotation Xrotation Yrotation
						JOINT LeftElbow
						{
OFFSET 0 -5.145070 -0.000000
CHANNELS 3 Zrotation Xrotation Yrotation
							JOINT LeftWrist
							{
OFFSET 0 -3.506460 0.000000
CHANNELS 3 Zrotation Xrotation Yrotation
								JOINT lhand
								{
									OFFSET 0 0 0
CHANNELS 3 Zrotation Xrotation Yrotation
									JOINT LFingers
									{
OFFSET 0 -0.629970 0.000000
CHANNELS 3 Zrotation Xrotation Yrotation
										End Site
										{
OFFSET 0 -0.507900 0.000000
										}
									}
								}
								JOINT LThumb
								{
OFFSET 0 0.000000 0.000000
CHANNELS 3 Zrotation Xrotation Yrotation
									End Site
									{
OFFSET 0 -0.515650 0.515650
									}
								}
							}
						}
					}
				}
				JOINT RightCollar
				{
					OFFSET 0 0 0
					CHANNELS 3 Zrotation Yrotation Xrotation
					JOINT RightShoulder
					{
						OFFSET -3.06467 1.61290 -0.28813
CHANNELS 3 Zrotation Xrotation Yrotation
						JOINT RightElbow
						{
OFFSET 0 -5.232000 -0.000000
CHANNELS 3 Zrotation Xrotation Yrotation
							JOINT RightWrist
							{
OFFSET 0 -3.656410 0.000000
CHANNELS 3 Zrotation Xrotation Yrotation
								JOINT rhand
								{
									OFFSET 0 0 0
CHANNELS 3 Zrotation Xrotation Yrotation
									JOINT RFingers
									{
OFFSET 0 -0.656810 0.000000
CHANNELS 3 Zrotation Xrotation Yrotation
										End Site
										{
OFFSET 0 -0.529530 0.000000
										}
									}
								}
								JOINT RThumb
								{
OFFSET 0 0.000000 0.000000
CHANNELS 3 Zrotation Xrotation Yrotation
									End Site
									{
OFFSET 0 -0.537620 0.537620
									}
								}
							}
						}
					}
				}
			}
		}
	}
}
MOTION
Frames: 5
Frame Time: 0.008333333333333333
-0.707900 16.629600 -51.854500 -8.268800 -16.867400 15.424600 0.000000 0.000000 0.000000 -0.807400 -6.712100 -64.801300 8.066800 16.168100 52.802800 0.410900 -5.984400 -11.526800 0.779400 -5.636600 -15.733500 0.000000 0.000000 0.000000 29.581100 -0.833200 -3.050500 -2.944100 -10.604000 30.955800 -2.734200 -3.741900 -32.737500 -2.229000 9.327700 -26.825900 12.181700 1.139800 14.486100 4.417800 4.031000 -1.232300 -2.910900 1.434700 -9.045700 0.533800 0.394600 -19.425500 -7.336000 1.323400 7.890300 -2.294700 0.071800 5.590300 -0.000000 -0.000000 0.000000 -0.467600 3.894800 -33.490000 27.244300 -38.411100 9.650500 20.942600 0.567100 1.050700 0.000000 0.000000 0.000000 -7.125000 0.000000 0.000000 -4.383800 28.843400 -1.729700 -0.000000 -0.000000 0.000000 -4.748700 4.665800 30.577000 -22.913200 -33.993800 -7.089700 -14.645000 7.827200 14.614800 0.000000 0.000000 0.000000 7.125000 0.000000 -0.000000 11.916200 44.727100 0.081400
-0.691147 16.585836 -51.728594 -8.061436 -17.044420 15.549822 0.000000 0.000000 0.000000 -1.192810 -6.645942 -65.501261 8.217665 16.276825 53.342751 0.420302 -5.616940 -11.608686 0.744782 -5.512404 -15.375955 0.000000 0.000000 0.000000 28.902935 -1.353064 -3.264531 -3.078297 -10.820168 31.676446 -2.880022 -2.566180 -33.083250 -2.201648 9.274021 -26.656231 12.217087 1.166981 14.400453 4.288561 4.036299 -1.144431 -3.067406 1.444444 -8.884322 0.488669 0.447937 -19.048295 -7.289074 1.366309 7.459758 -2.262305 0.112743 5.394731 0.000000 0.000000 0.000000 -0.438282 3.947880 -33.532652 27.864769 -38.990369 10.038902 21.495970 0.107326 0.998645 0.000000 0.000000 0.000000 -7.125000 0.000000 0.000000 -3.954882 28.897164 -1.554731 0.000000 0.000000 0.000000 -4.785796 4.210129 31.806056 -23.214588 -34.322369 -7.259113 -14.713808 8.167821 14.989269 0.000000 0.000000 0.000000 7.125000 0.000000 0.000000 11.957570 45.110972 -0.033309
-0.690145 16.533488 -51.602334 -8.345056 -17.319496 15.734005 0.000000 0.000000 0.000000 -1.020257 -6.312154 -66.221302 8.429477 16.425567 54.094421 0.427647 -5.273106 -11.675317 0.685757 -5.292636 -14.745388 0.000000 0.000000 0.000000 28.811469 -1.549317 -3.113233 -3.161196 -10.951266 32.115983 -2.960852 -1.755365 -33.229412 -2.185861 9.242905 -26.558080 12.407290 1.303712 14.557887 4.295832 4.260130 -1.021512 -3.213199 1.550328 -8.794463 0.491146 0.472467 -19.139939 -7.233775 1.381618 7.281592 -2.242681 0.127008 5.352631 0.000000 0.000000 0.000000 -0.314101 4.002380 -33.744879 28.544979 -39.610933 10.470159 21.872884 -0.304627 1.021303 0.000000 0.000000 0.000000 -7.125000 0.000000 0.000000 -3.660631 28.871250 -1.440710 0.000000 0.000000 0.000000 -4.755844 3.695993 32.983389 -23.573872 -34.709686 -7.462867 -14.658025 8.461898 14.511752 0.000000 0.000000 0.000000 7.125000 0.000000 0.000000 11.877401 44.625190 0.111027
-0.690900 16.479720 -51.471881 -8.614242 -17.633378 15.885623 0.000000 0.000000 0.000000 -0.913207 -5.916133 -66.906123 8.659465 16.582670 54.903594 0.432709 -4.940880 -11.720882 0.691537 -5.315239 -14.810037 0.000000 0.000000 0.000000 28.666307 -1.664598 -2.829029 -3.225186 -11.050785 32.451591 -3.045701 -0.817181 -33.376757 -2.149080 9.169686 -26.327634 12.519096 1.481715 14.866762 4.294427 4.557191 -0.954334 -3.348672 1.684017 -8.846601 0.536436 0.475696 -19.279369 -7.216657 1.367972 7.177320 -2.245985 0.122890 5.341044 0.000000 0.000000 0.000000 -0.147310 4.206308 -34.045368 29.293394 -40.276740 10.951042 22.224510 -0.791093 1.152754 0.000000 0.000000 0.000000 -7.125000 0.000000 0.000000 -3.383113 28.727738 -1.342268 0.000000 0.000000 0.000000 -4.730222 3.333247 34.141952 -24.143124 -35.312562 -7.790285 -14.771468 8.618187 14.353229 0.000000 0.000000 0.000000 7.125000 0.000000 0.000000 11.731610 44.479050 0.153216
-0.693959 16.427677 -51.329838 -8.797857 -17.853403 16.057383 0.000000 0.000000 0.000000 -0.920592 -5.596941 -67.589889 8.922095 16.756035 55.818448 0.424450 -4.765087 -11.599108 0.696877 -5.335704 -14.868632 0.000000 0.000000 0.000000 28.438003 -1.767395 -2.455026 -3.265112 -11.112340 32.659694 -3.147262 0.290771 -33.585844 -2.065033 8.998790 -25.792418 12.573934 1.623787 15.037449 4.270607 4.774345 -0.905843 -3.455157 1.784764 -8.852503 0.559484 0.488720 -19.303314 -7.163339 1.362736 7.005631 -2.232174 0.128756 5.289561 0.000000 0.000000 0.000000 0.063308 4.619340 -34.311617 30.203417 -41.061467 11.545017 22.692841 -1.347147 1.420796 0.000000 0.000000 0.000000 -7.125000 0.000000 0.000000 -3.012858 28.434282 -1.214918 0.000000 0.000000 0.000000 -4.665121 2.965174 35.464292 -25.005151 -36.202705 -8.295621 -14.947571 8.463065 14.262865 0.000000 0.000000 0.000000 7.125000 0.000000 0.000000 11.549552 44.408195 0.170623
